[ConversionWorker] Logging FFmpeg output to: ffmpeg_logs\ffmpeg_conversion_t_wav_20250525_164846.log\n[ConversionWorker] Getting duration with command: ffprobe -v error -show_entries format=duration -of default=noprint_wrappers=1:nokey=1 Z:\AAAAA01\t.wav\n[ConversionWorker] Duration for t.wav: 11418446 ms\n[ConversionWorker] Starting FFmpeg for t.wav: ffmpeg -i Z:\AAAAA01\t.wav -b:a 256k -vn -y -loglevel error -stats -progress pipe:1 Z:\AAAAA01\t.mp3\n[ConversionWorker] FFmpeg process started. PID: 28768\n[STDOUT RAW] bitrate= 154.1kbits/s\n[STDOUT RAW] total_size=88364\n[STDOUT RAW] out_time_us=4585958\n[STDOUT RAW] out_time_ms=4585958\n[STDOUT RAW] out_time=00:00:04.585958\n[STDOUT RAW] dup_frames=0\n[STDOUT RAW] drop_frames=0\n[STDOUT RAW] speed=9.02x\n[STDOUT RAW] progress=continue\n[STDERR RAW] size=      86KiB time=00:00:04.58 bitrate= 154.1kbits/s speed=9.02x\n[STDOUT RAW] bitrate= 157.1kbits/s\n[STDOUT RAW] total_size=179564\n[STDOUT RAW] out_time_us=9145958\n[STDOUT RAW] out_time_ms=9145958\n[STDOUT RAW] out_time=00:00:09.145958\n[STDOUT RAW] dup_frames=0\n[STDOUT RAW] drop_frames=0\n[STDOUT RAW] speed=8.89x\n[STDOUT RAW] progress=continue\n[STDERR RAW] size=     175KiB time=00:00:09.14 bitrate= 157.1kbits/s speed=8.89x\n[STDOUT RAW] bitrate=  93.6kbits/s\n[STDOUT RAW] total_size=262144\n[STDOUT RAW] out_time_us=22393958\n[STDOUT RAW] out_time_ms=22393958\n[STDOUT RAW] out_time=00:00:22.393958\n[STDOUT RAW] dup_frames=0\n[STDOUT RAW] drop_frames=0\n[STDOUT RAW] speed=14.5x\n[STDOUT RAW] progress=continue\n[STDERR RAW] size=     256KiB time=00:00:22.39 bitrate=  93.6kbits/s speed=14.5x\n[STDOUT RAW] bitrate= 156.7kbits/s\n[STDOUT RAW] total_size=2883584\n[STDOUT RAW] out_time_us=147193958\n[STDOUT RAW] out_time_ms=147193958\n[STDOUT RAW] out_time=00:02:27.193958\n[STDOUT RAW] dup_frames=0\n[STDOUT RAW] drop_frames=0\n[STDOUT RAW] speed=71.3x\n[STDOUT RAW] progress=continue\n[STDERR RAW] size=    2816KiB time=00:02:27.19 bitrate= 156.7kbits/s speed=71.3x\n[STDOUT RAW] bitrate= 152.4kbits/s\n[STDOUT RAW] total_size=5242880\n[STDOUT RAW] out_time_us=275233958\n[STDOUT RAW] out_time_ms=275233958\n[STDOUT RAW] out_time=00:04:35.233958\n[STDOUT RAW] dup_frames=0\n[STDOUT RAW] drop_frames=0\n[STDOUT RAW] speed= 107x\n[STDOUT RAW] progress=continue\n[STDERR RAW] size=    5120KiB time=00:04:35.23 bitrate= 152.4kbits/s speed= 107x\n[STDOUT RAW] bitrate= 156.0kbits/s\n[STDOUT RAW] total_size=7864320\n[STDOUT RAW] out_time_us=403249958\n[STDOUT RAW] out_time_ms=403249958\n[STDOUT RAW] out_time=00:06:43.249958\n[STDOUT RAW] dup_frames=0\n[STDOUT RAW] drop_frames=0\n[STDOUT RAW] speed= 130x\n[STDOUT RAW] progress=continue\n[STDERR RAW] size=    7680KiB time=00:06:43.24 bitrate= 156.0kbits/s speed= 130x\n[STDOUT RAW] bitrate= 159.2kbits/s\n[STDOUT RAW] total_size=10485760\n[STDOUT RAW] out_time_us=527017958\n[STDOUT RAW] out_time_ms=527017958\n[STDOUT RAW] out_time=00:08:47.017958\n[STDOUT RAW] dup_frames=0\n[STDOUT RAW] drop_frames=0\n[STDOUT RAW] speed= 146x\n[STDOUT RAW] progress=continue\n[STDOUT RAW] bitrate= 158.0kbits/s\n[STDERR RAW] size=   10240KiB time=00:08:47.01 bitrate= 159.2kbits/s speed= 146x\n[STDOUT RAW] total_size=13107200\n[STDOUT RAW] out_time_us=663793958\n[STDOUT RAW] out_time_ms=663793958\n[STDOUT RAW] out_time=00:11:03.793958\n[STDOUT RAW] dup_frames=0\n[STDOUT RAW] drop_frames=0\n[STDOUT RAW] speed= 161x\n[STDOUT RAW] progress=continue\n[STDERR RAW] size=   12800KiB time=00:11:03.79 bitrate= 158.0kbits/s speed= 161x\n[STDOUT RAW] bitrate= 159.4kbits/s\n[STDOUT RAW] total_size=15728640\n[STDOUT RAW] out_time_us=789409958\n[STDOUT RAW] out_time_ms=789409958\n[STDOUT RAW] out_time=00:13:09.409958\n[STDOUT RAW] dup_frames=0\n[STDOUT RAW] drop_frames=0\n[STDOUT RAW] speed= 170x\n[STDOUT RAW] progress=continue\n[STDERR RAW] size=   15360KiB time=00:13:09.40 bitrate= 159.4kbits/s speed= 170x\n[STDOUT RAW] bitrate= 158.1kbits/s\n[STDOUT RAW] total_size=18087936\n[STDOUT RAW] out_time_us=915433958\n[STDOUT RAW] out_time_ms=915433958\n[STDOUT RAW] out_time=00:15:15.433958\n[STDOUT RAW] dup_frames=0\n[STDOUT RAW] drop_frames=0\n[STDOUT RAW] speed= 178x\n[STDOUT RAW] progress=continue\n[STDERR RAW] size=   17664KiB time=00:15:15.43 bitrate= 158.1kbits/s speed= 178x\n[STDOUT RAW] bitrate= 158.0kbits/s\n[STDOUT RAW] total_size=20709376\n[STDOUT RAW] out_time_us=1048441958\n[STDOUT RAW] out_time_ms=1048441958\n[STDOUT RAW] out_time=00:17:28.441958\n[STDOUT RAW] dup_frames=0\n[STDOUT RAW] drop_frames=0\n[STDOUT RAW] speed= 185x\n[STDOUT RAW] progress=continue\n[STDERR RAW] size=   20224KiB time=00:17:28.44 bitrate= 158.0kbits/s speed= 185x\n[STDOUT RAW] bitrate= 158.6kbits/s\n[STDOUT RAW] total_size=23330816\n[STDOUT RAW] out_time_us=1177129958\n[STDOUT RAW] out_time_ms=1177129958\n[STDOUT RAW] out_time=00:19:37.129958\n[STDOUT RAW] dup_frames=0\n[STDOUT RAW] drop_frames=0\n[STDOUT RAW] speed= 190x\n[STDOUT RAW] progress=continue\n[STDERR RAW] size=   22784KiB time=00:19:37.12 bitrate= 158.6kbits/s speed= 190x\n[STDOUT RAW] bitrate= 159.0kbits/s\n[STDOUT RAW] total_size=25952256\n[STDOUT RAW] out_time_us=1305961958\n[STDOUT RAW] out_time_ms=1305961958\n[STDOUT RAW] out_time=00:21:45.961958\n[STDOUT RAW] dup_frames=0\n[STDOUT RAW] drop_frames=0\n[STDOUT RAW] speed= 195x\n[STDOUT RAW] progress=continue\n[STDERR RAW] size=   25344KiB time=00:21:45.96 bitrate= 159.0kbits/s speed= 195x\n[STDOUT RAW] bitrate= 158.5kbits/s\n[STDOUT RAW] total_size=28311552\n[STDOUT RAW] out_time_us=1428817958\n[STDOUT RAW] out_time_ms=1428817958\n[STDOUT RAW] out_time=00:23:48.817958\n[STDOUT RAW] dup_frames=0\n[STDOUT RAW] drop_frames=0\n[STDOUT RAW] speed= 198x\n[STDOUT RAW] progress=continue\n[STDERR RAW] size=   27648KiB time=00:23:48.81 bitrate= 158.5kbits/s speed= 198x\n[STDOUT RAW] bitrate= 158.7kbits/s\n[STDOUT RAW] total_size=31195136\n[STDOUT RAW] out_time_us=1572985958\n[STDOUT RAW] out_time_ms=1572985958\n[STDOUT RAW] out_time=00:26:12.985958\n[STDOUT RAW] dup_frames=0\n[STDOUT RAW] drop_frames=0\n[STDOUT RAW] speed= 203x\n[STDOUT RAW] progress=continue\n[STDERR RAW] size=   30464KiB time=00:26:12.98 bitrate= 158.7kbits/s speed= 203x\n[STDOUT RAW] bitrate= 159.7kbits/s\n[STDOUT RAW] total_size=34078720\n[STDOUT RAW] out_time_us=1707313958\n[STDOUT RAW] out_time_ms=1707313958\n[STDOUT RAW] out_time=00:28:27.313958\n[STDOUT RAW] dup_frames=0\n[STDOUT RAW] drop_frames=0\n[STDOUT RAW] speed= 207x\n[STDOUT RAW] progress=continue\n[STDOUT RAW] bitrate= 159.5kbits/s\n[STDERR RAW] size=   33280KiB time=00:28:27.31 bitrate= 159.7kbits/s speed= 207x\n[STDOUT RAW] total_size=36700160\n[STDOUT RAW] out_time_us=1841233958\n[STDOUT RAW] out_time_ms=1841233958\n[STDOUT RAW] out_time=00:30:41.233958\n[STDOUT RAW] dup_frames=0\n[STDOUT RAW] drop_frames=0\n[STDOUT RAW] speed= 210x\n[STDOUT RAW] progress=continue\n[STDERR RAW] size=   35840KiB time=00:30:41.23 bitrate= 159.5kbits/s speed= 210x\n[STDOUT RAW] bitrate= 159.8kbits/s\n[STDOUT RAW] total_size=39321600\n[STDOUT RAW] out_time_us=1968073958\n[STDOUT RAW] out_time_ms=1968073958\n[STDOUT RAW] out_time=00:32:48.073958\n[STDOUT RAW] dup_frames=0\n[STDOUT RAW] drop_frames=0\n[STDOUT RAW] speed= 212x\n[STDOUT RAW] progress=continue\n[STDERR RAW] size=   38400KiB time=00:32:48.07 bitrate= 159.8kbits/s speed= 212x\n[STDOUT RAW] bitrate= 159.7kbits/s\n[STDOUT RAW] total_size=41943040\n[STDOUT RAW] out_time_us=2100889958\n[STDOUT RAW] out_time_ms=2100889958\n[STDOUT RAW] out_time=00:35:00.889958\n[STDOUT RAW] dup_frames=0\n[STDOUT RAW] drop_frames=0\n[STDOUT RAW] speed= 215x\n[STDOUT RAW] progress=continue\n[STDERR RAW] size=   40960KiB time=00:35:00.88 bitrate= 159.7kbits/s speed= 215x\n[STDOUT RAW] bitrate= 160.0kbits/s\n[STDOUT RAW] total_size=44564480\n[STDOUT RAW] out_time_us=2228497958\n[STDOUT RAW] out_time_ms=2228497958\n[STDOUT RAW] out_time=00:37:08.497958\n[STDOUT RAW] dup_frames=0\n[STDOUT RAW] drop_frames=0\n[STDOUT RAW] speed= 216x\n[STDOUT RAW] progress=continue\n[STDERR RAW] size=   43520KiB time=00:37:08.49 bitrate= 160.0kbits/s speed= 216x\n[STDOUT RAW] bitrate= 160.0kbits/s\n[STDOUT RAW] total_size=47185920\n[STDOUT RAW] out_time_us=2360017958\n[STDOUT RAW] out_time_ms=2360017958\n[STDOUT RAW] out_time=00:39:20.017958\n[STDOUT RAW] dup_frames=0\n[STDOUT RAW] drop_frames=0\n[STDOUT RAW] speed= 218x\n[STDOUT RAW] progress=continue\n[STDERR RAW] size=   46080KiB time=00:39:20.01 bitrate= 160.0kbits/s speed= 218x\n[STDOUT RAW] bitrate= 159.5kbits/s\n[STDOUT RAW] total_size=49545216\n[STDOUT RAW] out_time_us=2484505958\n[STDOUT RAW] out_time_ms=2484505958\n[STDOUT RAW] out_time=00:41:24.505958\n[STDOUT RAW] dup_frames=0\n[STDOUT RAW] drop_frames=0\n[STDOUT RAW] speed= 219x\n[STDOUT RAW] progress=continue\n[ConversionWorker] Cancel method called.\n[ConversionWorker] Cancellation requested during processing. Terminating FFmpeg.\n[ConversionWorker] Waiting for reader threads to join...\n[STDERR RAW] size=   48384KiB time=00:41:24.50 bitrate= 159.5kbits/s speed= 219x\n[ConversionWorker] Process poll is None after loop, waiting for process to terminate...\n[ConversionWorker] FFmpeg process ended. Return code: 1\n[ConversionWorker] Closing FFmpeg log file.\n